<?xml version="1.0" encoding="UTF-8"?>
<svg width="100" height="32" viewBox="0 0 100 32" fill="none" xmlns="http://www.w3.org/2000/svg">
  <rect width="100" height="32" rx="4" fill="white"/>
  <path d="M19 10H81V22H19V10Z" fill="#006FCF"/>
  <path d="M35.5 16L37 12.5L38.5 16H35.5Z" fill="white"/>
  <path d="M66 15.5H70.5V14H66V12H71V10.5H64.5V19H71V17.5H66V15.5Z" fill="white"/>
  <path d="M61.5 10.5H57.5L54 15.5V10.5H50V19H54V17.5L55 16L57.5 19H62L58 14.5L61.5 10.5Z" fill="white"/>
  <path d="M47.5 19H43V10.5H47.5C50 10.5 52 12.5 52 14.75C52 17 50 19 47.5 19ZM47.5 12H45V17.5H47.5C49 17.5 50 16.25 50 14.75C50 13.25 49 12 47.5 12Z" fill="white"/>
  <path d="M34 19H32.5L30 14.5L27.5 19H26L29.5 12.5L26.5 10.5H28L30.5 15L33 10.5H34.5L31.5 14L34 19Z" fill="white"/>
  <path d="M25 17.5H20V15.5H24.5V14H20V12H25V10.5H18.5V19H25V17.5Z" fill="white"/>
</svg>
