<?xml version="1.0" encoding="UTF-8"?>
<svg width="100" height="32" viewBox="0 0 100 32" fill="none" xmlns="http://www.w3.org/2000/svg">
  <rect width="100" height="32" rx="4" fill="white"/>
  <path d="M38.5 9H61.5V23H38.5V9Z" fill="white"/>
  <path d="M40.5 16C40.5 13.1 41.8 10.5 43.9 9H38.5V23H43.9C41.8 21.5 40.5 18.9 40.5 16Z" fill="#FF5F00"/>
  <path d="M59.5 16C59.5 18.9 58.2 21.5 56.1 23H61.5V9H56.1C58.2 10.5 59.5 13.1 59.5 16Z" fill="#FF5F00"/>
  <path d="M43.9 23C46.9 25.2 51.1 25.2 54.1 23C57.1 20.8 57.1 17.2 54.1 15C51.1 12.8 46.9 12.8 43.9 15C40.9 17.2 40.9 20.8 43.9 23Z" fill="#FF5F00"/>
  <path d="M50 9.8C47.7 9.8 45.5 10.6 43.9 12C42.3 13.4 41.3 15.4 41.3 17.5C41.3 19.6 42.3 21.6 43.9 23C45.5 24.4 47.7 25.2 50 25.2C52.3 25.2 54.5 24.4 56.1 23C57.7 21.6 58.7 19.6 58.7 17.5C58.7 15.4 57.7 13.4 56.1 12C54.5 10.6 52.3 9.8 50 9.8Z" fill="#EB001B"/>
  <path d="M50 9.8C52.3 9.8 54.5 10.6 56.1 12C57.7 13.4 58.7 15.4 58.7 17.5C58.7 19.6 57.7 21.6 56.1 23C54.5 24.4 52.3 25.2 50 25.2C52.3 25.2 54.5 24.4 56.1 23C57.7 21.6 58.7 19.6 58.7 17.5C58.7 15.4 57.7 13.4 56.1 12C54.5 10.6 52.3 9.8 50 9.8Z" fill="#F79E1B"/>
</svg>
