<?xml version="1.0" encoding="UTF-8"?>
<svg width="100" height="32" viewBox="0 0 100 32" fill="none" xmlns="http://www.w3.org/2000/svg">
  <rect width="100" height="32" rx="4" fill="white"/>
  <path d="M40.5 13.5C40.5 11.5 42 10 44.5 10H54C56 10 57.5 11 57.5 13C57.5 15.5 55.5 17 53 17H51.5C51 17 50.5 17.5 50.5 18L50 20C50 20.5 49.5 21 49 21H46C45.5 21 45.5 20.5 45.5 20L47.5 12C47.5 11.5 47 11 46.5 11H44.5C43.5 11 43 11.5 43 12C43 12 42 17 41.5 19C41.5 19.5 41 20 40.5 20H37.5C37 20 37 19.5 37 19L39 11C39 10.5 38.5 10 38 10H35C34.5 10 34.5 10.5 34.5 11L32.5 19C32.5 20.5 33.5 22 35 22H40.5C42 22 43 20.5 43.5 19L44 17.5C44 17 44.5 16.5 45 16.5H46.5C50 16.5 53 14.5 53 11.5C53 10.5 52 10 51 10H44.5C43 10 42 10.5 42 11.5C42 12 42.5 12.5 43 12.5H45.5C46 12.5 46 13 46 13.5L44.5 18.5C44.5 19 44 19.5 43.5 19.5H41C40.5 19.5 40.5 19 40.5 18.5V13.5Z" fill="#009CDE"/>
  <path d="M58.5 16.5C58.5 14.5 60 13 62.5 13H72C74 13 75.5 14 75.5 16C75.5 18.5 73.5 20 71 20H69.5C69 20 68.5 20.5 68.5 21L68 23C68 23.5 67.5 24 67 24H64C63.5 24 63.5 23.5 63.5 23L65.5 15C65.5 14.5 65 14 64.5 14H62.5C61.5 14 61 14.5 61 15C61 15 60 20 59.5 22C59.5 22.5 59 23 58.5 23H55.5C55 23 55 22.5 55 22L57 14C57 13.5 56.5 13 56 13H53C52.5 13 52.5 13.5 52.5 14L50.5 22C50.5 23.5 51.5 25 53 25H58.5C60 25 61 23.5 61.5 22L62 20.5C62 20 62.5 19.5 63 19.5H64.5C68 19.5 71 17.5 71 14.5C71 13.5 70 13 69 13H62.5C61 13 60 13.5 60 14.5C60 15 60.5 15.5 61 15.5H63.5C64 15.5 64 16 64 16.5L62.5 21.5C62.5 22 62 22.5 61.5 22.5H59C58.5 22.5 58.5 22 58.5 21.5V16.5Z" fill="#003087"/>
</svg>
