<?xml version="1.0" encoding="UTF-8"?>
<svg width="100" height="32" viewBox="0 0 100 32" fill="none" xmlns="http://www.w3.org/2000/svg">
  <rect width="100" height="32" rx="4" fill="white"/>
  <path d="M42.1 10.7H36.3L32.8 21.9H37.2L37.9 19.8H42.4L42.8 21.9H47.6L44.1 10.7H42.1ZM38.7 17.2L40.1 13.1L41.2 17.2H38.7Z" fill="#172B85"/>
  <path d="M31.9 10.7L28.2 18.2L27.7 15.7L27.7 15.7L26.6 11.8C26.6 11.8 26.4 10.7 25.1 10.7H19.5L19.4 10.9C19.4 10.9 21 11.2 22.8 12.2L26.7 21.9H31.2L37.2 10.7H31.9Z" fill="#172B85"/>
  <path d="M67.7 21.9L71.3 10.7H67.2L63.6 21.9H67.7Z" fill="#172B85"/>
  <path d="M62.1 10.7L58.3 18.1L56.8 11.9C56.8 11.9 56.6 10.7 55.1 10.7H49.6L49.5 10.9C49.5 10.9 51.8 11.3 54.1 12.9L58.1 21.9H62.7L68.6 10.7H62.1Z" fill="#172B85"/>
  <path d="M77.5 14.8L81.1 14.8C81.1 14.8 81.5 14.8 81.7 14.5C81.9 14.2 82.1 13.7 82.1 13.7C82.1 13.7 82.2 13.3 81.9 13C81.7 12.7 81.2 12.7 81.2 12.7L77.1 12.7L77.5 14.8ZM75.7 10.7L71.7 21.9H75.8L76.6 18.8L80.1 18.8C80.1 18.8 82.4 18.8 83.6 17.4C84.8 16 84.4 13.8 84.4 13.8C84.4 13.8 84 11.7 82.5 11C81.1 10.3 79.3 10.7 79.3 10.7H75.7Z" fill="#172B85"/>
</svg>
