<?xml version="1.0" encoding="UTF-8"?>
<svg id="Capa_2" data-name="Capa 2" xmlns="http://www.w3.org/2000/svg" viewBox="0 0 150 150">
  <defs>
    <style>
      .cls-1 {
        fill: #fff;
      }

      .cls-2 {
        fill: #ec1b30;
      }
    </style>
  </defs>
  <g id="Capa_1-2" data-name="Capa 1">
    <g>
      <rect class="cls-2" x="0" y="0" width="150" height="150" rx="9.49" ry="9.49"/>
      <g id="Capa_1-2" data-name="Capa 1-2">
        <g id="gKrJ2J">
          <g>
            <path class="cls-1" d="M51.42,65.14c-.27-3.1-2.36-5.58-5.37-6.25-1.96-.43-3.95-.2-5.69.72-2.3,1.21-4.44,2.71-6.65,4.09-.24.14-.45.31-.68.47-.04-.04-.07-.08-.11-.12,1.18-3.16,2.37-6.32,3.55-9.47-.05-.02-.11-.06-.16-.08-.19.23-.38.45-.56.68-1.65,2.13-3.3,4.26-4.94,6.4-3.39,4.42-6.8,8.8-10.13,13.25-1.64,2.19-3.06,4.54-3.43,7.33-.41,3.05.22,5.78,2.98,7.6,1.82,1.2,3.83,1.23,5.88.78,2.3-.51,4.39-1.51,6.28-2.96,1.04-.79,2.11-1.53,3.17-2.3.05.05.08.1.13.14-1.28,3.35-2.56,6.71-3.83,10.08.25-.04.33-.13.42-.24,2.12-2.75,4.24-5.51,6.34-8.27,3.42-4.53,6.88-9.01,10.21-13.6,1.77-2.42,2.87-5.14,2.59-8.26h0ZM36.4,83.53s-.1-.01-.14-.02v-7.76c-3.17,1.52-6.21,2.98-9.48,4.56,1.89-5.02,3.69-9.78,5.49-14.54.06.01.13.01.19.02v7.85c3.2-1.56,6.24-3.04,9.53-4.63-1.92,4.98-3.76,9.74-5.59,14.52h0ZM127.89,56.49c-5.42-.04-10.85,0-16.27-.02-.51,0-.73.18-.86.67-2.08,7.64-4.18,15.26-6.27,22.89-.18.63-.32,1.27-.48,1.94.2.04.3.08.41.08,5.42-.05,10.85-.02,16.26-.18,3.2-.1,5.75-1.54,7.52-4.27,2.14-3.29,1.96-5.97-.61-8.34.44-.33.87-.68,1.32-1.02,1.83-1.4,3.22-3.12,3.79-5.41.81-3.26-1.45-6.3-4.8-6.33h0ZM122.38,73.73c-.3,1.83-1.88,3.27-3.75,3.32-1.68.04-3.36,0-5.15,0,.47-1.71.9-3.32,1.38-4.91.05-.18.38-.41.59-.41,1.77-.04,3.55-.04,5.33-.01,1.03.02,1.77,1,1.6,2.01ZM125.18,63.81c-.49,1.62-1.6,2.66-3.26,2.8-1.78.16-3.59.04-5.52.04.49-1.65.94-3.24,1.44-4.82.05-.13.33-.26.51-.26,1.74-.02,3.48-.06,5.23-.01,1.24.04,1.95,1.08,1.59,2.26h0ZM101.27,81.1c-.02-1.98-.07-3.95-.1-5.92-.08-5.09-.16-10.17-.23-15.26-.04-2.16-1.29-3.42-3.42-3.43-1.11,0-2.23.01-3.34,0-2.87-.05-5.03,1.2-6.47,3.65l-12.53,21.15c-.12.2-.18.44-.31.76,2.37,0,4.61.05,6.86-.02.77-.02,1.59-.19,2.3-.51,2.99-1.39,5.95-2.86,8.93-4.3.29-.14.57-.25.97-.42,0,1.59,0,3.03.01,4.48,0,.35-.11.78.47.78h6.87c0-.41.01-.68,0-.94h0ZM93.92,74.96h-6.76c2.22-3.77,4.39-7.45,6.56-11.13.07.02.13.05.2.07v11.06h0ZM75.04,75.01c-3.53,0-7.06.01-10.59,0-1.71,0-2.56-1.11-2.13-2.75,1-3.76,2.02-7.51,3.03-11.26.38-1.45.76-2.88,1.18-4.45-.37-.02-.59-.06-.81-.06-2.17,0-4.33.02-6.5-.01-.63-.01-.86.24-1,.8-.91,3.37-1.87,6.74-2.75,10.13-.71,2.74-1.5,5.47-1.96,8.26-.61,3.6,1.68,6.34,5.16,6.38,4.29.05,8.56.02,12.84-.01.31,0,.72-.25.9-.5.59-.85,1.09-1.75,1.6-2.63.73-1.24,1.44-2.48,2.25-3.88h-1.21,0ZM58.15,86.57c-.61-.07-.88.16-1.02.77-.26,1.24-.61,2.47-.98,3.93-.57-1.28-1.12-2.35-1.51-3.46-.33-.96-.83-1.39-1.87-1.24-.83.11-1.89-.23-2.42.19-.54.41-.56,1.5-.78,2.3-.41,1.48-.78,2.98-1.2,4.61.71,0,1.28-.04,1.86,0,.51.04.73-.14.85-.66.27-1.27.63-2.51,1.03-4.03.66,1.5,1.23,2.74,1.76,4.01.19.47.45.71.98.68.84-.04,1.68-.04,2.5.01.54.04.73-.2.85-.68.38-1.56.8-3.11,1.21-4.67.14-.53.26-1.05.43-1.74-.67,0-1.18.04-1.7-.01h0ZM124.82,86.57c-1.22,0-1.21,0-1.52,1.21-.26,1.09-.55,2.18-.87,3.48-.36-.81-.62-1.42-.9-2.02-.39-.86-.57-2.02-1.24-2.47-.67-.44-1.82-.17-2.76-.2-.08,0-.17.01-.24,0-.6-.11-.84.18-.98.73-.47,1.88-.98,3.76-1.46,5.64-.06.2-.05.42-.07.72.65,0,1.23-.01,1.81.01.48.01.68-.16.79-.63.29-1.29.63-2.56,1.03-4.06.35.77.61,1.34.87,1.92.42.9.62,2.16,1.33,2.6.75.47,1.99.12,3.02.18.55.04.77-.2.88-.72.42-1.72.9-3.43,1.34-5.16.1-.36.16-.73.25-1.22h-1.27ZM113.42,86.6c-.93-.08-1.88-.01-2.82-.01v-.12c-1.05.06-2.12.1-3.16.19-.85.08-1.48.56-1.75,1.36-.41,1.23-.79,2.49-1.05,3.76-.24,1.21.18,1.8,1.41,1.86,1.96.08,3.94.02,5.9-.04.88-.02,1.56-.54,1.83-1.36.42-1.29.8-2.6,1.05-3.94.19-1.1-.26-1.6-1.41-1.7h0ZM110.66,91.53c-.91.04-1.83.01-2.74.01-.51,0-.71-.25-.6-.74.04-.22.08-.43.14-.65.35-1.33.49-1.44,1.88-1.45h.75c.22,0,.45-.05.66.01.47.16,1.3-.44,1.38.54.11,1.29-.54,2.24-1.47,2.28h0ZM86.72,86.61c-2.04-.04-4.06-.01-6.08-.04-.48-.01-.69.16-.8.63-.35,1.45-.74,2.9-1.12,4.35-.17.66-.35,1.32-.56,2.11.59,0,1.03-.05,1.46.01.75.1,1.2-.13,1.3-.94.04-.25.29-.67.45-.67,1.04-.07,2.1-.04,3.22-.04-.07.61-.13,1.08-.19,1.63.74,0,1.38.01,2.01-.01.13,0,.36-.12.38-.22.16-.69.26-1.4.38-2.11.04-.2-.01-.43.06-.61.29-.77.71-1.5.91-2.27.32-1.21-.17-1.8-1.42-1.82h0ZM84.48,89.87c-.87-.02-1.76,0-2.63,0-.08-1.04,0-1.14.92-1.14h2.78c-.05.85-.37,1.16-1.06,1.14h0ZM67.09,88.38c-.04.16-.05.32-.1.49-.88,2.92-.32,2.71-3.64,2.67-.97-.01-1.03-.1-.81-1.02.3-1.26.62-2.51.98-3.94-.81,0-1.45-.04-2.07.01-.19.01-.45.24-.5.42-.43,1.58-.85,3.16-1.2,4.76-.22,1.04.23,1.7,1.32,1.78,1.65.13,3.33.12,4.98.08,1.47-.02,2.33-.86,2.72-2.26.32-1.17.66-2.35.98-3.52.1-.38.16-.78.24-1.17-2.23-.41-2.39-.3-2.9,1.69h0ZM71.17,86.6c-.16,0-.38.17-.42.3-.19.57-.31,1.15-.49,1.83h2.87c-.43,1.7-.81,3.24-1.24,4.92.81,0,1.53.04,2.24-.02.17-.01.41-.32.47-.54.35-1.2.69-2.41.97-3.61.12-.57.39-.77.97-.74.71.04,1.42.01,2.17.01.18-.74.33-1.4.51-2.16-2.79,0-5.42,0-8.04.01h0ZM101.2,86.61c-2.59-.01-5.17-.02-7.76-.01-.18,0-.44.22-.51.39-.18.54-.29,1.1-.45,1.77h2.87c-.42,1.65-.81,3.2-1.26,4.9.75,0,1.39-.01,2.01.01.44.01.63-.17.73-.6.29-1.22.67-2.41.93-3.63.13-.55.37-.74.91-.71.55.02,1.11.04,1.66-.01.23-.02.55-.17.62-.35.22-.53.31-1.1.45-1.62-.13-.1-.18-.16-.22-.16h0ZM91.36,86.57c-2.06.06-1.57-.32-2.12,1.62-.49,1.76-.92,3.53-1.42,5.47.76,0,1.38-.02,1.98.01.5.04.67-.2.78-.65.48-1.86.98-3.7,1.46-5.54.07-.26.1-.53.16-.85-.35-.02-.59-.06-.82-.06h0ZM102.64,86.6c-.18.01-.44.19-.49.33-.6,2.19-1.16,4.38-1.78,6.73.72,0,1.28-.02,1.82.01.56.04.84-.14.98-.73.32-1.42.73-2.84,1.1-4.25.18-.66.35-1.32.54-2.11-.8,0-1.48-.02-2.17.01h0Z"/>
            <path class="cls-1" d="M51.42,65.14c-.27-3.1-2.36-5.58-5.37-6.25-1.96-.43-3.95-.2-5.69.72-2.3,1.21-4.44,2.71-6.65,4.09-.24.14-.45.31-.68.47-.04-.04-.07-.08-.11-.12,1.18-3.16,2.37-6.32,3.55-9.47-.05-.02-.11-.06-.16-.08-.19.23-.38.45-.56.68-1.65,2.13-3.3,4.26-4.94,6.4-3.39,4.42-6.8,8.8-10.13,13.25-1.64,2.19-3.06,4.54-3.43,7.33-.41,3.05.22,5.78,2.98,7.6,1.82,1.2,3.83,1.23,5.88.78,2.3-.51,4.39-1.51,6.28-2.96,1.04-.79,2.11-1.53,3.17-2.3.05.05.08.1.13.14-1.28,3.35-2.56,6.71-3.83,10.08.25-.04.33-.13.42-.24,2.12-2.75,4.24-5.51,6.34-8.27,3.42-4.53,6.88-9.01,10.21-13.6,1.77-2.42,2.87-5.14,2.59-8.26h0ZM36.4,83.53s-.1-.01-.14-.02v-7.76c-3.17,1.52-6.21,2.98-9.48,4.56,1.89-5.02,3.69-9.78,5.49-14.54.06.01.13.01.19.02v7.85c3.2-1.56,6.24-3.04,9.53-4.63-1.92,4.98-3.76,9.74-5.59,14.52h0Z"/>
            <path class="cls-1" d="M127.89,56.49c-5.42-.04-10.85,0-16.27-.02-.51,0-.73.18-.86.67-2.08,7.64-4.18,15.26-6.27,22.89-.18.63-.32,1.27-.48,1.94.2.04.3.08.41.08,5.42-.05,10.85-.02,16.26-.18,3.2-.1,5.75-1.54,7.52-4.27,2.14-3.29,1.96-5.97-.61-8.34.44-.33.87-.68,1.32-1.02,1.83-1.4,3.22-3.12,3.79-5.41.81-3.26-1.45-6.3-4.8-6.33h0ZM122.38,73.73c-.3,1.83-1.88,3.27-3.75,3.32-1.68.04-3.36,0-5.15,0,.47-1.71.9-3.32,1.38-4.91.05-.18.38-.41.59-.41,1.77-.04,3.55-.04,5.33-.01,1.03.02,1.77,1,1.6,2.01ZM125.18,63.81c-.49,1.62-1.6,2.66-3.26,2.8-1.78.16-3.59.04-5.52.04.49-1.65.94-3.24,1.44-4.82.05-.13.33-.26.51-.26,1.74-.02,3.48-.06,5.23-.01,1.24.04,1.95,1.08,1.59,2.26h0Z"/>
            <path class="cls-1" d="M101.27,81.1c-.02-1.98-.07-3.95-.1-5.92-.08-5.09-.16-10.17-.23-15.26-.04-2.16-1.29-3.42-3.42-3.43-1.11,0-2.23.01-3.34,0-2.87-.05-5.03,1.2-6.47,3.65l-12.53,21.15c-.12.2-.18.44-.31.76,2.37,0,4.61.05,6.86-.02.77-.02,1.59-.19,2.3-.51,2.99-1.39,5.95-2.86,8.93-4.3.29-.14.57-.25.97-.42,0,1.59,0,3.03.01,4.48,0,.35-.11.78.47.78h6.87c0-.41.01-.68,0-.94h0ZM93.92,74.96h-6.76c2.22-3.77,4.39-7.45,6.56-11.13.07.02.13.05.2.07v11.06h0Z"/>
            <path class="cls-1" d="M66.52,56.55c-.42,1.56-.8,3.01-1.18,4.45-1.01,3.76-2.02,7.51-3.02,11.27-.43,1.64.42,2.75,2.13,2.75,3.53.01,7.06,0,10.59,0h1.2c-.81,1.4-1.52,2.64-2.25,3.87-.52.89-1.02,1.79-1.6,2.63-.18.26-.59.51-.9.51-4.28.03-8.56.06-12.85.01-3.48-.04-5.77-2.78-5.16-6.39.47-2.78,1.26-5.51,1.97-8.25.88-3.39,1.84-6.75,2.75-10.13.15-.56.37-.81,1.01-.8,2.17.04,4.34.01,6.51.02.22,0,.43.03.81.06h0Z"/>
            <path class="cls-1" d="M52.11,88.97c-.39,1.51-.75,2.77-1.03,4.03-.11.51-.33.69-.84.66-.57-.03-1.15,0-1.86,0,.42-1.62.79-3.12,1.19-4.6.22-.8.25-1.89.78-2.3.53-.41,1.6-.07,2.41-.19,1.05-.15,1.54.29,1.87,1.25.39,1.11.94,2.17,1.51,3.45.37-1.45.72-2.68.99-3.92.13-.61.41-.84,1.02-.77.51.05,1.03.01,1.7.01-.17.69-.3,1.22-.43,1.74-.4,1.56-.82,3.11-1.22,4.67-.12.47-.31.71-.85.68-.83-.05-1.67-.05-2.5-.01-.53.02-.79-.21-.99-.68-.53-1.27-1.1-2.52-1.76-4.01h0Z"/>
            <path class="cls-1" d="M118.39,88.97c-.39,1.5-.74,2.77-1.03,4.06-.11.48-.31.66-.78.63-.58-.02-1.16,0-1.81,0,.03-.3.01-.52.06-.72.49-1.88,1-3.75,1.47-5.64.14-.55.38-.84.97-.73.08.01.17,0,.25,0,.94.03,2.09-.25,2.76.19.67.45.86,1.61,1.25,2.47.27.6.54,1.21.89,2.02.33-1.3.61-2.4.88-3.49.2-.81.71-1.21,1.51-1.2h1.27c-.1.49-.16.86-.26,1.22-.45,1.72-.92,3.43-1.34,5.15-.13.52-.34.75-.89.72-1.02-.06-2.26.29-3.01-.18-.71-.44-.91-1.7-1.33-2.6-.27-.57-.52-1.14-.87-1.92h0Z"/>
            <path class="cls-1" d="M113.42,86.6c-.93-.08-1.88-.01-2.82-.01v-.12c-1.05.06-2.12.1-3.16.19-.85.08-1.48.56-1.75,1.36-.41,1.23-.79,2.49-1.05,3.76-.24,1.21.18,1.8,1.41,1.86,1.96.08,3.94.02,5.9-.04.88-.02,1.56-.54,1.83-1.36.42-1.29.8-2.6,1.05-3.94.19-1.1-.26-1.6-1.41-1.7h0ZM110.66,91.53c-.91.04-1.83.01-2.74.01-.51,0-.71-.25-.6-.74.04-.22.08-.43.14-.65.35-1.33.49-1.44,1.88-1.45h.75c.22,0,.45-.05.66.01.47.16,1.3-.44,1.38.54.11,1.29-.54,2.24-1.47,2.28h0Z"/>
            <path class="cls-1" d="M86.72,86.61c-2.04-.04-4.06-.01-6.08-.04-.48-.01-.69.16-.8.63-.35,1.45-.74,2.9-1.12,4.35-.17.66-.35,1.32-.56,2.11.59,0,1.03-.05,1.46.01.75.1,1.2-.13,1.3-.94.04-.25.29-.67.45-.67,1.04-.07,2.1-.04,3.22-.04-.07.61-.13,1.08-.19,1.63.74,0,1.38.01,2.01-.01.13,0,.36-.12.38-.22.16-.69.26-1.4.38-2.11.04-.2-.01-.43.06-.61.29-.77.71-1.5.91-2.27.32-1.21-.17-1.8-1.42-1.82h0ZM84.48,89.87c-.87-.02-1.76,0-2.63,0-.08-1.04,0-1.14.92-1.14h2.78c-.05.85-.37,1.16-1.06,1.14h0Z"/>
            <path class="cls-1" d="M63.52,86.58c-.36,1.43-.67,2.69-.98,3.94-.22.92-.16,1,.82,1.01,3.31.03,2.75.26,3.63-2.67.05-.16.06-.33.1-.49.5-1.98.67-2.09,2.9-1.69-.08.39-.14.79-.25,1.17-.32,1.18-.66,2.35-.98,3.52-.38,1.39-1.24,2.24-2.71,2.26-1.66.03-3.33.04-4.98-.09-1.09-.08-1.54-.74-1.32-1.79.34-1.6.76-3.18,1.19-4.76.05-.18.32-.4.5-.42.63-.05,1.26-.02,2.07-.02h0Z"/>
            <path class="cls-1" d="M73.14,88.73h-2.87c.17-.68.3-1.27.48-1.84.04-.13.27-.3.42-.3,2.63-.02,5.26-.01,8.05-.01-.18.76-.34,1.41-.52,2.15-.74,0-1.46.03-2.17,0-.57-.03-.84.16-.97.74-.27,1.21-.61,2.42-.96,3.61-.06.22-.3.52-.48.54-.7.06-1.41.03-2.23.03.43-1.68.82-3.22,1.25-4.92h0Z"/>
            <path class="cls-1" d="M101.41,86.76c-.13.52-.24,1.09-.45,1.62-.07.18-.4.33-.62.35-.55.05-1.11.04-1.66,0-.53-.03-.78.16-.9.71-.27,1.22-.65,2.41-.94,3.63-.1.43-.29.61-.73.59-.63-.02-1.26,0-2.01,0,.43-1.69.83-3.24,1.25-4.9h-2.87c.16-.67.27-1.23.46-1.77.06-.18.33-.4.51-.4,2.58-.01,5.17,0,7.75.02.04,0,.09.06.22.15h0Z"/>
            <path class="cls-1" d="M87.81,93.66c.51-1.95.94-3.72,1.44-5.47.55-1.94.05-1.57,2.11-1.62.24,0,.49.03.83.06-.06.33-.08.59-.15.85-.48,1.85-.98,3.7-1.45,5.55-.11.43-.28.68-.78.64-.6-.04-1.21,0-1.98,0h0Z"/>
            <path class="cls-1" d="M100.37,93.66c.62-2.35,1.18-4.54,1.78-6.73.04-.15.31-.33.48-.34.68-.04,1.37-.02,2.18-.02-.2.79-.36,1.45-.54,2.11-.37,1.42-.78,2.83-1.11,4.26-.13.58-.41.77-.97.73-.55-.04-1.1,0-1.82,0Z"/>
          </g>
        </g>
      </g>
    </g>
  </g>
</svg>