<?xml version="1.0" encoding="UTF-8"?>
<svg id="Capa_2" data-name="Capa 2" xmlns="http://www.w3.org/2000/svg" viewBox="0 0 150 150">
  <defs>
    <style>
      .cls-1 {
        fill: #fff;
      }

      .cls-2 {
        fill: #d3bb85;
      }

      .cls-3 {
        fill: #523523;
      }
    </style>
  </defs>
  <g id="Capa_1-2" data-name="Capa 1">
    <g>
      <rect class="cls-2" x="0" y="0" width="150" height="150" rx="9.49" ry="9.49"/>
      <g id="Capa_1-2" data-name="Capa 1-2">
        <g id="H4Q5KN">
          <g>
            <path class="cls-3" d="M71.36,34.41h7.5c.22.04.44.1.66.12,3.35.29,6.71.47,10.04.87,7.02.85,13.85,2.47,20.31,5.44,4.78,2.2,9.1,5.06,12.52,9.11,6.86,8.13,8.55,17.61,6.78,27.82-1.29,7.46-5.24,13.47-10.94,18.36-5.38,4.62-11.62,7.65-18.31,9.82-6.82,2.22-13.84,3.4-20.99,3.77-4.98.25-9.95.11-14.89-.57-.38-.05-.8.11-1.2.18.1.39.09.87.32,1.16.89,1.11,1.79,2.24,2.81,3.23,1.55,1.5,3.21,2.89,4.8,4.35.78.72.73,1.37-.09,1.95h-.96c-.21-.08-.41-.19-.62-.25-1.55-.43-3.11-.83-4.66-1.27-5.53-1.57-11-3.29-16.25-5.67-6.24-2.83-11.51-6.96-16.21-11.9-3.49-3.67-6.43-7.71-8.49-12.35-4.38-9.88-4.56-19.77.22-29.55,3.78-7.73,9.73-13.4,17.3-17.38,8.37-4.4,17.41-6.3,26.76-6.98,1.2-.09,2.4-.18,3.59-.27ZM67.05,77.01c0,3.68,0,7.36-.01,11.04,0,.52.13.74.69.72.91-.04,1.82-.04,2.72,0,.64.03.86-.17.85-.84-.04-2.27-.02-4.54,0-6.81,0-.23.04-.55.19-.66.45-.34,1.31.02,1.51.57.82,2.36,1.65,4.71,2.45,7.08.16.48.4.69.92.67.77-.04,1.54,0,2.32-.01.95,0,.97-.04.65-.97-.87-2.51-1.73-5.02-2.62-7.52-.16-.44-.11-.67.34-.9,1.27-.64,2.21-1.64,2.56-3.03.3-1.2.58-2.45.58-3.67,0-4.18-2.33-6.78-6.45-7.17-1.94-.18-3.9-.09-5.85-.16-.67-.03-.85.2-.85.85.02,3.61.01,7.22.01,10.83h0ZM55.83,73.88h-.03c0-2.59-.01-5.18.01-7.77,0-.6-.19-.8-.79-.77-.91.04-1.82.04-2.73,0-.58-.02-.73.2-.72.75.02,4.16,0,8.32.02,12.47.01,2.09.13,4.18.8,6.19.84,2.53,2.81,3.93,5.57,4,2.72.06,4.84-1.19,5.69-3.68.5-1.46.82-3.05.86-4.59.13-4.84.09-9.68.13-14.52,0-.49-.19-.63-.65-.62-1,.02-2,.02-3,0-.43,0-.6.14-.6.59.02,4.52.05,9.04.02,13.57-.01,1.24-.13,2.49-.4,3.7-.22.98-1.03,1.45-1.92,1.44-.9-.01-1.6-.5-1.93-1.46-.18-.51-.3-1.06-.31-1.6-.03-2.57-.01-5.13-.01-7.7h0ZM112.4,88.8s0-.03,0-.05c.45,0,.91-.02,1.36,0,.52.03.74-.1.62-.7-.25-1.22-.41-2.46-.61-3.69-1.01-6.12-2.02-12.23-3.02-18.35-.08-.48-.25-.7-.78-.69-1.2.04-2.41.01-3.61.01-1.3,0-1.3,0-1.54,1.29-1.31,7.14-2.61,14.29-3.94,21.43-.1.53.03.71.56.69.79-.02,1.59-.03,2.38,0,.5.02.73-.16.82-.66.25-1.36.56-2.71.82-4.07.08-.39.22-.58.66-.57,1,.03,2,.03,3,0,.45-.01.59.18.64.58.12.94.25,1.89.4,2.83.09.6.04,1.43.4,1.72.4.32,1.21.16,1.83.2h0ZM36.61,77.06h-.02c0,3.61.02,7.22-.02,10.83,0,.71.22.91.89.87.86-.05,1.73-.05,2.59,0,.63.04.82-.18.81-.81-.04-2.29,0-4.59-.02-6.88,0-.54.16-.7.7-.69.82,0,1.64-.02,2.44-.15,2.23-.38,4.13-1.27,5.06-3.52.67-1.63.84-3.34.65-5.08-.36-3.3-2.3-5.52-5.57-5.97-2.21-.3-4.48-.2-6.72-.31-.65-.03-.8.21-.8.82.02,3.63.01,7.27.01,10.9h0ZM97.15,78.92c0-3.09,0-6.18-.01-9.27,0-.5.13-.69.65-.67,1.02.04,2.04,0,3.07.01.43,0,.63-.14.62-.59-.02-.84-.02-1.68,0-2.52,0-.42-.18-.55-.58-.55-4,0-8,0-11.99,0-.46,0-.59.19-.59.61.02.82.02,1.64,0,2.45,0,.44.17.61.61.6,1-.02,2,0,3,0,.66,0,1,.33,1,.99,0,6,0,11.99,0,17.99,0,.51.05.82.68.79.91-.04,1.82-.04,2.73,0,.65.03.87-.18.86-.85-.03-3-.01-6-.02-9h0ZM82.11,77.01c0,3.68,0,7.36-.01,11.03,0,.53.15.73.69.72.97-.03,1.95-.02,2.93,0,.47.01.63-.18.63-.65-.01-7.38-.01-14.76,0-22.14,0-.46-.15-.66-.63-.64-.95.02-1.91.04-2.86,0-.62-.03-.76.2-.76.78.02,3.63.01,7.27.01,10.9h0ZM75.26,60.47c.75,0,1.4-.02,2.05,0,.4.02.56-.15.62-.53.15-.87.36-1.73.52-2.6.07-.37.21-.56.62-.54.59.03,1.18.03,1.77,0,.43-.02.54.19.59.56.09.74.23,1.48.29,2.23.05.65.27,1,1,.89.42-.06.86-.04,1.29,0,.55.05.65-.2.57-.69-.83-4.97-1.64-9.94-2.46-14.91-.06-.36-.22-.51-.58-.51-.86,0-1.73.02-2.59-.03-.6-.04-.83.17-.93.76-.74,4.16-1.51,8.31-2.27,12.46-.17.93-.32,1.86-.5,2.91h0ZM69.32,57.94v-1.62c0-3.75-.01-7.5.01-11.25,0-.53-.14-.74-.69-.7-.56.04-1.14.03-1.7,0-.42-.02-.55.16-.55.56,0,4.98,0,9.95,0,14.93,0,.49.19.62.65.61,1.75-.02,3.5,0,5.25,0s1.71,0,1.74-1.75c.01-.64-.18-.82-.8-.79-1.27.04-2.53.01-3.89.01h0Z"/>
            <path class="cls-1" d="M67.05,77.01c0-3.61.01-7.22-.01-10.83,0-.65.18-.87.85-.85,1.95.08,3.91-.02,5.85.16,4.13.39,6.46,2.99,6.45,7.17,0,1.23-.28,2.47-.58,3.67-.35,1.39-1.29,2.39-2.56,3.03-.45.23-.5.46-.34.9.89,2.5,1.75,5.01,2.62,7.52.32.93.3.96-.65.97-.77,0-1.55-.02-2.32.01-.52.03-.76-.18-.92-.67-.8-2.36-1.63-4.72-2.45-7.08-.19-.56-1.06-.91-1.51-.57-.15.11-.19.44-.19.66-.01,2.27-.03,4.54,0,6.81.01.67-.21.87-.85.84-.91-.04-1.82-.04-2.72,0-.56.02-.69-.19-.69-.72.02-3.68.01-7.36,0-11.04h0ZM71.28,72.79c0,1.11-.02,2.22.02,3.33,0,.2.2.52.37.57,1.42.41,3.48-.5,4.15-1.79,1.54-2.97-.51-6.24-3.84-6.15-.51.01-.73.15-.71.7.04,1.11.01,2.22.01,3.33h0Z"/>
            <path class="cls-1" d="M55.83,73.88c0,2.57-.02,5.13.01,7.7,0,.53.13,1.09.31,1.6.33.96,1.03,1.45,1.93,1.46.89.01,1.7-.46,1.92-1.44.27-1.2.39-2.46.4-3.7.04-4.52,0-9.04-.02-13.57,0-.45.17-.6.6-.59,1,.02,2,.02,3,0,.46-.01.65.13.65.62-.04,4.84,0,9.68-.13,14.52-.04,1.54-.36,3.13-.86,4.59-.85,2.49-2.96,3.75-5.69,3.68-2.75-.07-4.73-1.46-5.57-4-.66-2.01-.78-4.1-.8-6.19-.02-4.16,0-8.32-.02-12.47,0-.55.15-.77.72-.75.91.04,1.82.04,2.73,0,.6-.03.79.18.79.77-.02,2.59-.01,5.18-.01,7.77h.03Z"/>
            <path class="cls-1" d="M112.4,88.8c-.63-.05-1.43.12-1.83-.2-.36-.29-.3-1.12-.4-1.72-.15-.94-.28-1.89-.4-2.83-.05-.4-.19-.59-.64-.58-1,.03-2,.03-3,0-.44-.01-.59.18-.66.57-.26,1.36-.57,2.71-.82,4.07-.09.5-.31.68-.82.66-.79-.03-1.59-.02-2.38,0-.53.02-.65-.16-.56-.69,1.32-7.14,2.63-14.29,3.94-21.43.24-1.3.25-1.29,1.54-1.29,1.2,0,2.41.03,3.61-.01.54-.02.7.21.78.69,1,6.12,2.01,12.23,3.02,18.35.2,1.23.36,2.47.61,3.69.12.6-.1.73-.62.7-.45-.02-.91,0-1.36,0,0,.02,0,.03,0,.05h0ZM105.97,79.88c.98,0,1.85-.02,2.72,0,.56.02.69-.16.6-.72-.41-2.55-.77-5.11-1.16-7.67-.03-.19-.12-.38-.19-.56-.08,0-.15.01-.23.02-.57,2.91-1.15,5.83-1.75,8.92h0Z"/>
            <path class="cls-1" d="M36.61,77.06c0-3.64.01-7.27-.01-10.9,0-.62.15-.85.8-.82,2.24.11,4.51,0,6.72.31,3.26.45,5.2,2.68,5.57,5.97.19,1.74.03,3.45-.65,5.08-.93,2.25-2.83,3.14-5.06,3.52-.8.13-1.63.16-2.44.15-.54,0-.7.15-.7.69.02,2.29-.01,4.59.02,6.88,0,.63-.18.84-.81.81-.86-.05-1.73-.05-2.59,0-.67.04-.9-.15-.89-.87.04-3.61.02-7.22.02-10.83h.02,0ZM40.85,72.75c0,1.13-.02,2.27.02,3.4,0,.19.17.49.33.54,1.3.43,3.42-.42,4.08-1.65.82-1.52.76-3.06-.11-4.53-.83-1.41-2.2-1.78-3.74-1.75-.43,0-.6.15-.59.6.02,1.13,0,2.26,0,3.4h0Z"/>
            <path class="cls-1" d="M97.15,78.92c0,3-.02,6,.01,9,0,.67-.21.88-.86.85-.91-.05-1.82-.05-2.73,0-.63.03-.68-.28-.68-.79.01-6,0-11.99,0-17.99,0-.65-.33-.98-1-.99-1,0-2-.01-3,0-.44,0-.62-.16-.61-.6.02-.82.02-1.64,0-2.45,0-.42.13-.62.59-.61,4,.01,8,.01,11.99,0,.4,0,.59.13.58.55-.01.84-.01,1.68,0,2.52.01.45-.19.6-.62.59-1.02-.02-2.05.02-3.07-.01-.52-.02-.66.17-.65.67.02,3.09.01,6.18.01,9.27h0Z"/>
            <path class="cls-1" d="M82.11,77.01c0-3.63.01-7.27-.01-10.9,0-.59.14-.81.76-.78.95.05,1.91.03,2.86,0,.48-.01.63.18.63.64,0,7.38,0,14.76,0,22.14,0,.47-.16.66-.63.65-.98-.02-1.95-.03-2.93,0-.54.02-.69-.19-.69-.72.02-3.68.01-7.36.01-11.03h0Z"/>
            <path class="cls-1" d="M75.26,60.47c.18-1.04.33-1.98.5-2.91.76-4.15,1.53-8.3,2.27-12.46.11-.59.34-.8.93-.76.86.05,1.72.04,2.59.03.36,0,.52.15.58.51.81,4.97,1.63,9.94,2.46,14.91.08.49-.02.73-.57.69-.43-.04-.87-.06-1.29,0-.73.11-.94-.24-1-.89-.06-.74-.21-1.48-.29-2.23-.04-.37-.16-.58-.59-.56-.59.03-1.18.03-1.77,0-.41-.02-.55.17-.62.54-.16.87-.37,1.73-.52,2.6-.07.38-.22.55-.62.53-.65-.03-1.3,0-2.05,0h0ZM80.24,48.29h-.21c-.39,1.98-.78,3.96-1.17,5.98h2.29c-.31-2.04-.61-4.01-.91-5.99h0Z"/>
            <path class="cls-1" d="M69.32,57.94c1.36,0,2.63.03,3.89-.01.62-.02.82.16.8.79-.04,1.75,0,1.75-1.74,1.75s-3.5-.01-5.25,0c-.46,0-.65-.12-.65-.61.01-4.98.01-9.95,0-14.93,0-.41.13-.58.55-.56.57.02,1.14.04,1.7,0,.55-.04.69.16.69.7-.02,3.75-.01,7.5-.01,11.25v1.62h0Z"/>
            <path class="cls-3" d="M71.28,72.79c0-1.11.03-2.22-.01-3.33-.02-.55.2-.69.71-.7,3.33-.09,5.38,3.17,3.84,6.15-.67,1.3-2.73,2.21-4.15,1.79-.17-.05-.36-.37-.37-.57-.04-1.11-.02-2.22-.02-3.33h0Z"/>
            <path class="cls-3" d="M105.97,79.88c.61-3.09,1.18-6.01,1.75-8.92.08,0,.15-.01.23-.02.06.19.16.37.19.56.39,2.56.75,5.11,1.16,7.67.09.56-.05.74-.6.72-.87-.03-1.75,0-2.72,0h0Z"/>
            <path class="cls-3" d="M40.85,72.75c0-1.13.02-2.27,0-3.4-.01-.45.16-.59.59-.6,1.54-.03,2.9.34,3.74,1.75.87,1.47.93,3.02.11,4.53-.66,1.23-2.79,2.08-4.08,1.65-.16-.05-.32-.35-.33-.54-.03-1.13-.02-2.26-.01-3.4h0Z"/>
            <path class="cls-3" d="M80.24,48.29c.3,1.97.6,3.95.91,5.99h-2.29c.4-2.02.79-4,1.17-5.98h.21Z"/>
          </g>
        </g>
      </g>
    </g>
  </g>
</svg>