<svg xmlns="http://www.w3.org/2000/svg" viewBox="0 0 173 40"><defs><style>.cls-1{fill:#00a943;fill-rule:evenodd;}</style></defs><g id="Capa_2" data-name="Capa 2"><g id="Capa_1-2" data-name="Capa 1"><path class="cls-1" d="M62.91,8a7,7,0,0,0-2.82.52,6,6,0,0,0-2,1.35,5.59,5.59,0,0,0-1.19,1.92A6.36,6.36,0,0,0,56.5,14a6.89,6.89,0,0,0,.38,2.27A5.08,5.08,0,0,0,58,18.14a6,6,0,0,0,2,1.31,7.38,7.38,0,0,0,2.85.49,6.85,6.85,0,0,0,4.65-1.56A5.54,5.54,0,0,0,69.33,14a5.86,5.86,0,0,0-1.71-4.32A6.4,6.4,0,0,0,62.91,8Zm28.88.35a7.69,7.69,0,0,0-2.72.47A6.33,6.33,0,0,0,87,10.11a5.86,5.86,0,0,0-1.36,2,6.7,6.7,0,0,0-.47,2.5,6,6,0,0,0,6.38,6.28,7.79,7.79,0,0,0,2.82-.48,6,6,0,0,0,2.09-1.33,6.2,6.2,0,0,0,1.34-2,6.7,6.7,0,0,0,.47-2.5A6.17,6.17,0,0,0,96.65,10,6.33,6.33,0,0,0,91.79,8.3ZM157,8.3a7.69,7.69,0,0,0-2.72.47,6.24,6.24,0,0,0-2.12,1.34,5.86,5.86,0,0,0-1.36,2,6.51,6.51,0,0,0-.48,2.5A6.24,6.24,0,0,0,152,19.12a6.17,6.17,0,0,0,4.67,1.79,7.7,7.7,0,0,0,2.81-.48,5.94,5.94,0,0,0,2.1-1.33,6,6,0,0,0,1.33-2,6.51,6.51,0,0,0,.48-2.5A6.22,6.22,0,0,0,161.86,10,6.33,6.33,0,0,0,157,8.3ZM128,2.16a13.81,13.81,0,0,1,4.3.62,7.45,7.45,0,0,1,3.16,2,8.82,8.82,0,0,1,2,3.53,18.41,18.41,0,0,1,.66,4.83v6.05a1,1,0,0,0,.86,1h1.54a1,1,0,0,1,1,.86V25a1,1,0,0,1-.86,1H129.85a1,1,0,0,1-1-.86v-4a1,1,0,0,1,.87-1h.77a1,1,0,0,0,1-.86V13.64a15,15,0,0,0-.12-1.9,4.16,4.16,0,0,0-.6-1.71,3.46,3.46,0,0,0-1.4-1.23,5.44,5.44,0,0,0-2.49-.47A4.86,4.86,0,0,0,123,9.82a5.78,5.78,0,0,0-1.45,3.91v5.43a1,1,0,0,0,.86,1H124a1,1,0,0,1,1,.86V25a1,1,0,0,1-.86,1H112.56a1,1,0,0,1-1-.86v-4a1,1,0,0,1,.86-1h1.64a1,1,0,0,0,1-.86V9.16a1,1,0,0,0-.86-1h-1.44a1,1,0,0,1-1-.86V3.42a1,1,0,0,1,.86-1h7.46a1,1,0,0,1,1,.78,1,1,0,0,0,1.53.59,7.4,7.4,0,0,1,2.26-1.14A11.9,11.9,0,0,1,128,2.16ZM43.41,1.83a11.43,11.43,0,0,1,3.31.52,8.15,8.15,0,0,1,2.45,1.22c.36.26.49.75.16,1.44l-.07.15-2,3.66A.94.94,0,0,1,46,9.2a6.21,6.21,0,0,0-1.29-.56,7.89,7.89,0,0,0-2.35-.36,6.47,6.47,0,0,0-1.92.29,4,4,0,0,0-1.64.95,4.89,4.89,0,0,0-1.17,1.73,6.35,6.35,0,0,0-.44,2.29v5.91h0v5.62a1,1,0,0,1-.85.95H31.49a1,1,0,0,1-.95-.85V20.62h0V15h0V3.41a1,1,0,0,1,.85-1h4.09a.94.94,0,0,1,.92.7,1,1,0,0,0,1.52.5,7.5,7.5,0,0,1,2-1.16A9.58,9.58,0,0,1,43.41,1.83ZM90,1.92a19.42,19.42,0,0,1,4.57.53,6.59,6.59,0,0,1,2.62,1.33.84.84,0,0,0,1.35-.43l0-.11,0-.11a.85.85,0,0,1,.7-.63h7.49a.83.83,0,0,1,.83.73V7.56a.84.84,0,0,1-.74.83H105.4a.83.83,0,0,0-.83.74V19.5a.84.84,0,0,0,.74.83h1.62a.84.84,0,0,1,.83.74v4.18a.85.85,0,0,1-.74.84h-6.73a1.89,1.89,0,0,1-1.93-1.8V24a.34.34,0,0,0,0-.09.13.13,0,0,0-.07-.09.23.23,0,0,0-.34,0,10.06,10.06,0,0,1-3.81,2.27,15.26,15.26,0,0,1-4.43.64,12.32,12.32,0,0,1-4.57-.81,9.72,9.72,0,0,1-3.53-2.35,10.51,10.51,0,0,1-2.29-3.79,16.19,16.19,0,0,1-.77-6.49v-.09a13.44,13.44,0,0,1,3-7.14,12.21,12.21,0,0,1,3.6-2.86A11.34,11.34,0,0,1,89.9,1.93Zm65.21,0a19.42,19.42,0,0,1,4.57.53,6.59,6.59,0,0,1,2.62,1.33.84.84,0,0,0,1.34-.43l0-.11,0-.11a.86.86,0,0,1,.7-.63h7.49a.84.84,0,0,1,.84.73V7.56a.84.84,0,0,1-.73.83h-1.43a.83.83,0,0,0-.83.74V19.5a.84.84,0,0,0,.73.83h1.62a.85.85,0,0,1,.84.74v4.18a.85.85,0,0,1-.73.84H165.5a1.91,1.91,0,0,1-1.94-1.8V24a.26.26,0,0,0,0-.09c0-.05-.05-.07-.07-.09a.24.24,0,0,0-.35,0,10,10,0,0,1-3.8,2.27,15.31,15.31,0,0,1-4.43.64,12.37,12.37,0,0,1-4.58-.81,9.77,9.77,0,0,1-3.52-2.35,10.51,10.51,0,0,1-2.29-3.79,16.19,16.19,0,0,1-.77-6.49v-.09a13.36,13.36,0,0,1,3-7.14,12,12,0,0,1,3.6-2.86,11.3,11.3,0,0,1,4.76-1.25ZM13.47,0a14,14,0,0,1,5.82,1.19,11.94,11.94,0,0,1,4.09,3,12.29,12.29,0,0,1,2.38,4.31,15.5,15.5,0,0,1,.74,5,16,16,0,0,1-.77,4.89,11.91,11.91,0,0,1-6.48,7.29,12.93,12.93,0,0,1-4.33,1.07l-.45,0V19a.56.56,0,0,1,.48-.56c7.64-1,8.69-8.18,8.83-10.41a.57.57,0,0,0-.64-.6c-6.73.81-8.91,4.44-9.61,6.94a.57.57,0,0,1-1,.11C10.31,10,5,10.09,3.23,10.25a.57.57,0,0,0-.5.67c1.41,7.83,6.89,8,8.74,7.89a.56.56,0,0,1,.6.48V26.8a13.9,13.9,0,0,1-4.83-1.08,12,12,0,0,1-4.13-3A11.62,11.62,0,0,1,.75,18.5,16.24,16.24,0,0,1,0,13.59,15,15,0,0,1,1.06,7.8,12.52,12.52,0,0,1,4,3.54,12.4,12.4,0,0,1,8.24.9,15,15,0,0,1,13.47,0ZM159.71,29.93a.52.52,0,0,1,0,.74.52.52,0,1,1-.74-.74A.53.53,0,0,1,159.71,29.93Zm-32.53,0a.51.51,0,0,1,0,.74.53.53,0,0,1-.74,0,.52.52,0,0,1,.74-.74Zm-42.89,0a.51.51,0,0,1,0,.74.53.53,0,0,1-.74,0,.52.52,0,0,1,.74-.74Zm80.05,0a.51.51,0,0,1,0,.74.53.53,0,0,1-.74,0,.52.52,0,0,1,.74-.74Zm-44.14-.06-.81,1h-.79l.61-1ZM87.07,32a1.1,1.1,0,0,0-1.15.94h2.23A1.05,1.05,0,0,0,87.07,32Zm27.23,0a1.17,1.17,0,0,0-.86.34,1.23,1.23,0,0,0,0,1.7,1.21,1.21,0,0,0,.86.34,1.19,1.19,0,0,0,.86-.34,1.21,1.21,0,0,0,0-1.7A1.15,1.15,0,0,0,114.3,32.06Zm-7,0a1.14,1.14,0,0,0-.84.34,1.15,1.15,0,0,0-.34.86,1.16,1.16,0,0,0,1.18,1.19,1.15,1.15,0,0,0,.85-.34,1.17,1.17,0,0,0,.34-.85,1.19,1.19,0,0,0-.34-.86A1.15,1.15,0,0,0,107.31,32.09Zm-11.46,0a1.18,1.18,0,0,0-.86.35,1.22,1.22,0,0,0-.34.87,1.25,1.25,0,0,0,.34.87,1.26,1.26,0,0,0,1.72,0,1.21,1.21,0,0,0,.34-.87,1.18,1.18,0,0,0-1.2-1.22Zm75.13,0a1.18,1.18,0,0,0-1.2,1.22,1.21,1.21,0,0,0,.34.87,1.26,1.26,0,0,0,1.72,0,1.21,1.21,0,0,0,.34-.87,1.18,1.18,0,0,0-1.2-1.22Zm-70.34,0a1.18,1.18,0,0,0-1.2,1.22,1.21,1.21,0,0,0,.34.87,1.26,1.26,0,0,0,1.72,0,1.21,1.21,0,0,0,.34-.87,1.18,1.18,0,0,0-1.2-1.22Zm18.44,0a1.18,1.18,0,0,0-.86.35,1.22,1.22,0,0,0-.34.87,1.25,1.25,0,0,0,.34.87,1.17,1.17,0,0,0,.86.34,1.15,1.15,0,0,0,.86-.34,1.21,1.21,0,0,0,.34-.87,1.18,1.18,0,0,0-.34-.87A1.16,1.16,0,0,0,119.08,32.07Zm14.94,0a1.16,1.16,0,0,0-.86.35,1.18,1.18,0,0,0-.34.87,1.21,1.21,0,0,0,.34.87,1.15,1.15,0,0,0,.86.34,1.13,1.13,0,0,0,.85-.34,1.22,1.22,0,0,0,.35-.87,1.18,1.18,0,0,0-.35-.87A1.14,1.14,0,0,0,134,32.07Zm-51.1-2.2v.84h-1.5v4.47h-.87V30.71H79v-.84Zm44.3,1.52v3.79h-.82V31.39Zm-15.17-.07v.89a1.18,1.18,0,0,0-.82.23,1,1,0,0,0-.35.83v1.91h-.82V31.39h.82V32A1.17,1.17,0,0,1,112.05,31.32Zm-27.72.07v3.79h-.82V31.39Zm81.46,0,1.06,2.88,1.06-2.88h.9l-1.49,3.79h-.95l-1.48-3.79Zm-7.47-.07v.89a1.17,1.17,0,0,0-.82.23.92.92,0,0,0-.35.83v1.91h-.82V31.39h.82V32A1.16,1.16,0,0,1,158.32,31.32Zm1.43.07v3.79h-.82V31.39Zm4.63,0v3.79h-.82V31.39Zm-72.68-.1a1.41,1.41,0,0,1,1.46,1.56v2.33h-.82V32.94a.79.79,0,0,0-.85-.88c-.58,0-1,.35-1,1.09v2H89.7V31.39h.83v.48A1.3,1.3,0,0,1,91.7,31.29Zm55,0a1.41,1.41,0,0,1,1.46,1.56v2.33h-.82V32.94a.79.79,0,0,0-.85-.88c-.58,0-1,.35-1,1.09v2h-.82V31.39h.82v.48A1.31,1.31,0,0,1,146.74,31.29Zm-22.68,0a1.41,1.41,0,0,1,1.46,1.56v2.33h-.82V32.94a.79.79,0,0,0-.85-.88c-.58,0-1,.35-1,1.09v2h-.82V31.39h.82v.48A1.31,1.31,0,0,1,124.06,31.29Zm37.81-1v1.06h.95v.79h-.95V34c0,.48.32.48.95.45v.73c-1.26.15-1.77-.19-1.77-1.18V32.18h-.7v-.79h.7v-.82Zm-7.27,0v1.06h.94v.79h-.94V34c0,.48.32.48.94.45v.73c-1.25.15-1.76-.19-1.76-1.18V32.18h-.7v-.79h.7v-.82Zm-4.77,1.06v2.24a.79.79,0,0,0,.85.88c.58,0,1-.35,1-1.09v-2h.82v3.79h-.82V34.7a1.31,1.31,0,0,1-1.18.58A1.41,1.41,0,0,1,149,33.72V31.39Zm-62.75-.1a1.78,1.78,0,0,1,1.36.58A2,2,0,0,1,89,33.29a1.51,1.51,0,0,1,0,.34h-3a1.26,1.26,0,0,0,2.19.43l.68.39a1.86,1.86,0,0,1-1.66.83,2.06,2.06,0,0,1-1.5-.56,2.08,2.08,0,0,1,0-2.85A1.91,1.91,0,0,1,87.08,31.29Zm31.87,0a1.53,1.53,0,0,1,1.33.64v-.54h.82v3.79h-.82v-.54a1.53,1.53,0,0,1-1.33.64,1.76,1.76,0,0,1-1.33-.58,2.07,2.07,0,0,1,0-2.83A1.76,1.76,0,0,1,119,31.29Zm14.94,0a1.54,1.54,0,0,1,1.33.64v-.54H136v3.79h-.82v-.54a1.54,1.54,0,0,1-1.33.64,1.77,1.77,0,0,1-1.34-.58,2.07,2.07,0,0,1,0-2.83A1.77,1.77,0,0,1,133.89,31.29Zm37,0a1.53,1.53,0,0,1,1.33.64v-.54H173v3.79h-.82v-.54a1.53,1.53,0,0,1-1.33.64,1.78,1.78,0,0,1-1.34-.58,2.1,2.1,0,0,1,0-2.83A1.78,1.78,0,0,1,170.85,31.29Zm-73-1.42v5.31h-.82v-.54a1.53,1.53,0,0,1-1.33.64,1.76,1.76,0,0,1-1.33-.58,2.07,2.07,0,0,1,0-2.83,1.76,1.76,0,0,1,1.33-.58,1.53,1.53,0,0,1,1.33.64V29.87ZM130,31.29a1.87,1.87,0,0,1,1.69,1l-.71.41a1,1,0,0,0-1-.59,1.16,1.16,0,0,0-1.18,1.2A1.15,1.15,0,0,0,130,34.48a1.1,1.1,0,0,0,1-.59l.71.4a1.92,1.92,0,0,1-1.71,1,2,2,0,0,1-1.44-.58,2,2,0,0,1,0-2.83A2,2,0,0,1,130,31.29Zm-22.66,0a2,2,0,1,1,0,4,1.94,1.94,0,0,1-1.42-.58,2,2,0,0,1,0-2.83A1.94,1.94,0,0,1,107.31,31.29Zm-6.8,0a1.53,1.53,0,0,1,1.33.64v-.54h.82v3.79h-.82v-.54a1.53,1.53,0,0,1-1.33.64,1.8,1.8,0,0,1-1.34-.58,2.1,2.1,0,0,1,0-2.83A1.8,1.8,0,0,1,100.51,31.29Zm38.84.1,1.13,2.75,1-2.75h.87l-1.46,3.91A1.79,1.79,0,0,1,139,36.7v-.77c.51,0,.8-.22,1-.74l0-.08-1.61-3.72Zm-25.16-.1a1.52,1.52,0,0,1,1.32.66v-.56h.81V35a1.61,1.61,0,0,1-.57,1.32,2.09,2.09,0,0,1-1.39.47,1.87,1.87,0,0,1-1.8-.92l.71-.41a1.13,1.13,0,0,0,1.11.58,1,1,0,0,0,1.13-1v-.47a1.52,1.52,0,0,1-1.32.66,1.85,1.85,0,0,1-1.36-.56,2,2,0,0,1-.56-1.39,1.91,1.91,0,0,1,.56-1.38A1.79,1.79,0,0,1,114.19,31.29ZM72.71.71l.12.09,2.28,1.86a1.46,1.46,0,0,1,.25,2l-.09.11L74.12,6a1.47,1.47,0,0,0-.07,1.88,9.22,9.22,0,0,1,1.45,2.7A11,11,0,0,1,76,13.83a9.91,9.91,0,0,1-1.22,5.07,8.69,8.69,0,0,1-2.08,2.4,1.4,1.4,0,0,0,0,2.19,6.88,6.88,0,0,1,1,1,8.63,8.63,0,0,1,1.38,2.11,6.71,6.71,0,0,1,.55,1.89c.06.59.09,1.07.09,1.45a9.09,9.09,0,0,1-1.11,4.65,9.41,9.41,0,0,1-3,3.1,13,13,0,0,1-4.2,1.78,21,21,0,0,1-4.9.57A17.18,17.18,0,0,1,57,39.19a10.77,10.77,0,0,1-4-2.27,9.31,9.31,0,0,1-2.38-3.53,11.49,11.49,0,0,1-.68-3,1.44,1.44,0,0,1,1.33-1.56h3.77A1.56,1.56,0,0,1,56.58,30,5.28,5.28,0,0,0,57,31.2a4.63,4.63,0,0,0,1.38,1.59,6.29,6.29,0,0,0,2,.93,9.07,9.07,0,0,0,2.35.31A13.82,13.82,0,0,0,65,33.84a7.37,7.37,0,0,0,2-.64A3.9,3.9,0,0,0,68.4,32,3.36,3.36,0,0,0,69,30a4,4,0,0,0-1.38-3c-.92-.87-2.47-1.3-4.66-1.3q-6.45,0-9.81-3.11c-2.23-2.07-3.35-4.93-3.35-8.6a11.15,11.15,0,0,1,4.21-9,13.44,13.44,0,0,1,4.23-2.25,15.43,15.43,0,0,1,4.72-.76c.35,0,.8,0,1.36.08A15.5,15.5,0,0,1,66,2.23c.44.09.86.18,1.26.29l.4.12.46.13a1.49,1.49,0,0,0,1.5-.37l.1-.11L70.78,1A1.47,1.47,0,0,1,72.71.71Z"/></g></g></svg>