<?xml version="1.0" encoding="UTF-8"?>
<svg id="Capa_2" data-name="Capa 2" xmlns="http://www.w3.org/2000/svg" viewBox="0 0 150 150">
  <defs>
    <style>
      .cls-1 {
        fill: #fff;
      }

      .cls-2 {
        fill: #f26322;
      }
    </style>
  </defs>
  <g id="Capa_1-2" data-name="Capa 1">
    <g>
      <rect class="cls-2" x="0" y="0" width="150" height="150" rx="9.49" ry="9.49"/>
      <path class="cls-1" d="M121.17,65.24c-5.18,0-7.53,3.11-7.53,7.41s2.35,7.47,7.53,7.47,7.53-3.11,7.53-7.47-2.35-7.41-7.53-7.41ZM121.17,77.61c-2.97,0-4.59-2.06-4.59-4.96s1.62-4.89,4.59-4.9c2.97,0,4.59,2.06,4.59,4.9s-1.62,4.95-4.59,4.96ZM92.35,77.59c-4.3,0-4.46-3.76-4.46-4.36h11.01v-1.13c0-4.23-2.71-6.86-6.92-6.86-2.05,0-7.3.78-7.3,7.14s4.12,7.73,7.67,7.73c4.1,0,6.1-2.66,6.75-5.08h-3.02c-.25.7-1.14,2.57-3.73,2.57h0ZM88.95,68.78c.74-.67,1.79-1.03,3.03-1.03,2.82,0,3.88,1.7,3.93,3.34h-8.03c0-.73.41-1.72,1.06-2.31ZM81.77,66.74c.98,1.04,1.48,2.56,1.48,4.53v8.5h-3.01v-8.11c0-1.39-.25-2.35-.78-2.94-.52-.59-1.3-.86-2.48-.86-1.39,0-2.56.51-3.38,1.48-.85,1.01-1.31,2.49-1.31,4.29v6.14h-2.98v-14.41h2.98v2.95s1.54-3.09,5.5-3.09c1.7,0,3.03.51,3.98,1.5h0ZM28.67,60.18h5.49v19.61h-2.9l.07-16.83-5.27,16.83h-5.81l-5.17-16.82v16.82h-2.9v-19.61h5.49l5.1,17.54h.81l5.1-17.54ZM59.34,78.4h-.17c-2.91.01-4.49.27-4.49-2.45h-2.84c0,2.23,1.05,3.48,2.61,4.17-2.17.34-3.57,1.66-3.57,3.98,0,4.19,3.75,5.71,8.39,5.71s8.39-1.52,8.39-5.71-3.71-5.69-8.3-5.71ZM59.19,87.3c-3.02,0-5.47-.42-5.47-3.2s2.43-3.19,5.43-3.2h.04c3.02,0,5.47.44,5.47,3.2s-2.45,3.2-5.47,3.2ZM63.91,66.32c-1.31-.76-3.03-1.08-4.92-1.08h-.05c-4.08.01-7.37,1.54-7.37,5.71s3.33,5.71,7.43,5.71,7.43-1.52,7.43-5.71c0-1.14-.25-2.08-.7-2.85.4-.24.83-.34,1.46-.34h1.28v-2.38h-1.37c-1.22,0-1.97.14-3.19.95h0ZM58.92,74.14c-2.41,0-4.36-.42-4.36-3.2s1.94-3.19,4.33-3.2h.03c2.41,0,4.36.44,4.36,3.2s-1.96,3.2-4.36,3.2h0ZM132.84,77.15h2.04v2.62h-2.98c-.92,0-1.67-.75-1.67-1.68v-17.92h2.61v16.97ZM112.75,75.97c0,1.46-1.01,4.14-5.85,4.14-2.27,0-3.99-.56-5.11-1.56-.94-.83-1.46-2.06-1.56-3.57h2.99c.2,1.75,1.19,2.62,3.5,2.62,1.85,0,2.98-.48,3.03-1.64,0-.9-.54-1.31-1.44-1.63-.46-.17-3.97-1.2-4.59-1.49-.5-.23-.99-.47-1.39-.76-1.04-.73-1.55-1.66-1.48-2.91,0-2.23,2.07-3.93,5.4-3.93,2.07,0,3.65.51,4.69,1.53.98.95,1.27,2.13,1.31,3.05h-2.99c-.07-.84-.52-2.06-2.79-2.06-1.43,0-2.66.46-2.66,1.59,0,.87.59,1.14,1.97,1.58.35.11,2.84.9,3.28,1.04.77.25,1.48.53,2.08.94,1.07.73,1.58,1.7,1.58,3.07h0ZM51.04,77.15h-2.04v-5.43c0-3.94-2.58-6.48-6.58-6.48-1.92,0-3.55.57-4.72,1.65-.85.78-1.4,1.79-1.61,2.92h2.91c.5-1.91,2.5-2.06,3.42-2.06,2.23,0,3.44,1.07,3.59,3.18l-5.23.55c-1.68.19-2.93.67-3.74,1.42-.76.7-1.14,1.67-1.14,2.87,0,1.29.47,4.35,4.87,4.35,1.41,0,2.72-.39,3.79-1.02.74-.44,1.45-1.12,1.84-1.76h.04v.57c0,1.19.68,1.87,1.87,1.87h2.74v-2.62h0ZM44.7,76.15c-.88.83-2.11,1.28-3.54,1.28s-2.28-.75-2.28-2.06c0-1.09.65-1.57,2.4-1.78l4.73-.49c-.04,1.2-.5,2.28-1.31,3.05h0ZM136.68,61.73c.19-.02.35-.16.35-.39,0-.29-.19-.47-.58-.47h-.7v1.54h.3v-.57h.35c.18,0,.26.08.26.25.02.17.03.28.07.32h.32c-.06-.06-.07-.14-.08-.36-.02-.18-.12-.29-.29-.32ZM136.4,61.61h-.35v-.49h.35c.23,0,.33.09.33.24,0,.17-.1.24-.33.24ZM136.35,60.18c-.81,0-1.47.62-1.47,1.49s.67,1.49,1.47,1.49,1.47-.62,1.47-1.49-.66-1.49-1.47-1.49ZM136.35,62.9c-.67,0-1.2-.52-1.2-1.23s.53-1.23,1.2-1.23,1.2.52,1.2,1.23-.53,1.23-1.2,1.23Z"/>
    </g>
  </g>
</svg>