<?xml version="1.0" encoding="UTF-8"?>
<svg id="Capa_1" data-name="Capa 1" xmlns="http://www.w3.org/2000/svg" version="1.1" viewBox="0 0 150 150">
  <defs>
    <style>
      .cls-1 {
        fill: #035fad;
      }

      .cls-1, .cls-2, .cls-3 {
        stroke-width: 0px;
      }

      .cls-2 {
        fill: #fefefe;
      }

      .cls-3 {
        fill: #f49421;
      }
    </style>
  </defs>
  <rect class="cls-2" width="150" height="150" rx="8.06" ry="8.06"/>
  <path class="cls-3" d="M136.79,93.32c-.96-.11-1.98.07-2.88-.32-1-.42-2.03-.31-3.04-.45-1.41-.2-2.8-.47-4.19-.8-.91-.22-1.87-.34-2.8-.49-3.3-.52-6.62-.89-9.95-1.19-3.32-.3-6.64-.53-9.96-.74-4.42-.28-8.84-.58-13.26-.83-2.75-.16-5.51-.27-8.26-.35-4.71-.14-9.42-.21-14.13-.17-3.18.03-6.37.09-9.55.23-4.29.19-8.58.45-12.86.8-2.76.22-5.52.46-8.27.74-3.75.38-7.49.79-11.24,1.22-3.89.44-7.77.92-11.66,1.39-.9.11-1.79.23-2.68.34-.18.02-.37.03-.55.03-.17,0-.37.04-.46-.14-.1-.19-.04-.38.08-.55.05-.08.17-.14.11-.25-.06-.12-.19-.06-.3-.07-.01,0-.02,0-.04,0-.26-.01-.58.19-.76-.14-.11-.21.23-.89.47-1.03.56-.33,1.15-.59,1.79-.73.23-.05.41-.16.49-.39.06-.18.21-.22.36-.27,3.28-1.02,6.59-1.86,10-2.35,2.09-.3,4.2-.34,6.31-.52,1.52-.12,3.04-.25,4.56-.39,1.35-.13,2.69-.27,4.04-.4,2.2-.22,4.39-.45,6.59-.65,3.05-.29,6.1-.46,9.17-.32,1.41.07,2.83-.06,4.24-.11,1.39-.05,2.78-.05,4.17.09,1.38.14,2.75-.08,4.13-.14.56-.03,1.12-.05,1.68-.06,2.94-.01,5.88-.04,8.82-.02,3.53.02,7.05.06,10.58.14,3.26.07,6.51.18,9.76.44,1.17.09,2.33.03,3.49.09,2.16.11,4.31.32,6.47.32.07,0,.19,0,.21.03.1.28.25.11.4.06.15-.04.34-.11.28.19-.03.17.07.15.17.1.08-.04.12-.22.22-.14.33.25.71.04,1.06.16.7.24,1.45.18,2.18.24.8.07,1.57.19,2.27.61.37.22.81.15,1.22.19,2.59.24,5.16.64,7.7,1.16,1.45.3,2.92.39,4.35.77.19.05.39.08.56.17.5.27,1.02.36,1.59.29.23-.03.53-.1.66.23.01.03.11.04.17.03.92-.08,1.78.26,2.65.46.68.15,1.4.21,2.05.45.29.11.66-.05.87.26,0,.01.05.02.07.01.56-.18.95.17,1.38.41.21.12.42.17.66.18.18,0,.37.04.54.09.15.05.23.18.2.35-.03.14-.11.19-.25.2-.72.06-1.44.09-2.14-.14-.24-.08-.48-.16-.74-.04-.16.07-.38.04-.49-.07-.2-.2-.37-.12-.58-.06-.58.17-1.14.08-1.67-.17-.09-.04-.17-.11-.27-.09-.61.12-1.16-.1-1.71-.3-.02,0-.05-.02-.07-.02-.19-.03-.46-.21-.55.02-.09.21.12.43.31.57.1.07.22.15.33.15,1.16.04,2.19.59,3.31.82.76.15,1.54.28,2.26.6.13.06.26.13.39.2l-.02.09Z"/>
  <path class="cls-1" d="M101.87,80.39c-4.83-.02-8.53-3.86-8.43-8.65.09-4.57,3.86-8.2,8.59-8.16,4.65.04,8.33,3.78,8.29,8.44-.04,4.72-3.75,8.41-8.44,8.37ZM105.54,71.99c0-2.2-1.53-3.79-3.64-3.78-2.13.01-3.66,1.57-3.67,3.72,0,2.21,1.52,3.79,3.67,3.79,2.11,0,3.64-1.56,3.64-3.74Z"/>
  <path class="cls-1" d="M17.13,65.49c.27-.28.44-.5.65-.68.88-.75,1.92-1.08,3.05-1.2,1.73-.18,3.33.16,4.69,1.32,1.21,1.03,1.8,2.4,2.03,3.94.08.56.08,1.12.08,1.68,0,2.99,0,5.98,0,8.97,0,.32-.06.44-.41.43-1.35-.02-2.71-.02-4.06,0-.26,0-.32-.08-.32-.33,0-2.9,0-5.81,0-8.71,0-.79-.16-1.54-.73-2.12-.83-.85-1.86-.95-2.95-.69-1.02.24-1.63.92-1.9,1.92-.11.39-.14.79-.14,1.19,0,2.78,0,5.56,0,8.35,0,.33-.1.4-.41.39-1.35-.02-2.71-.02-4.06,0-.28,0-.34-.08-.34-.35,0-5.08,0-10.15,0-15.23,0-.25.04-.36.33-.36,1.38.02,2.76.02,4.14,0,.28,0,.36.09.34.35-.02.33,0,.67,0,1.13Z"/>
  <path class="cls-1" d="M40.06,78.54c-1.82,1.85-3.99,2.21-6.32,1.58-2.27-.61-3.5-2.27-4.01-4.51-.14-.61-.18-1.23-.18-1.85,0-3.14,0-6.27,0-9.41,0-.28.07-.34.34-.34,1.32.01,2.64,0,3.95,0,.52,0,.49-.13.49.51,0,2.86,0,5.71,0,8.57,0,.73.13,1.42.63,1.98.87.98,1.99,1.07,3.16.76,1.13-.3,1.67-1.15,1.86-2.26.07-.37.07-.75.07-1.13,0-2.69,0-5.37,0-8.06,0-.3.07-.39.38-.38,1.37.02,2.73.01,4.1,0,.23,0,.31.05.31.3,0,5.11,0,10.23,0,15.34,0,.21-.04.29-.28.29-1.38-.01-2.76-.02-4.14,0-.32,0-.39-.1-.37-.39.02-.32,0-.65,0-1.01Z"/>
  <path class="cls-1" d="M117.77,80.38c-1.62-.01-3.18-.29-4.57-1.19-.92-.6-1.62-1.4-2.13-2.36-.1-.18-.07-.26.11-.36,1.24-.7,2.48-1.41,3.72-2.12.15-.09.22-.08.29.09.62,1.56,2.1,1.86,3.45,1.59.22-.04.42-.12.59-.27.39-.32.4-.81,0-1.12-.46-.37-1.03-.49-1.58-.65-1.08-.32-2.16-.58-3.18-1.07-1.67-.8-2.73-2.02-2.78-3.95-.05-2.09.83-3.72,2.71-4.6,2.71-1.26,5.39-1.14,7.92.58.7.48,1.25,1.12,1.71,1.84.1.16.08.22-.07.3-1.24.66-2.47,1.32-3.7,2-.23.13-.27-.05-.35-.17-.42-.67-1.01-1.08-1.82-1.13-.28-.02-.56,0-.83.09-.35.11-.61.32-.65.71-.04.4.22.61.53.75.7.34,1.45.49,2.19.69,1.12.3,2.23.64,3.2,1.31,1.56,1.08,2.07,2.63,1.87,4.44-.24,2.26-1.66,3.52-3.71,4.19-.95.31-1.93.42-2.92.41Z"/>
  <path class="cls-1" d="M85.71,80.38c-4.28.02-7.67-2.75-8.39-6.84-.85-4.82,2.12-9.09,6.84-9.88,3.32-.55,6.7.89,8.46,3.62.18.29.15.41-.14.57-1.18.66-2.35,1.35-3.51,2.04-.23.13-.34.13-.5-.12-.73-1.16-2.2-1.72-3.66-1.42-1.47.3-2.54,1.37-2.77,2.81-.23,1.39.04,2.65,1.13,3.64,1.49,1.35,4.36,1.12,5.37-.72.08-.15.14-.19.3-.09,1.27.73,2.53,1.46,3.81,2.18.24.14.1.25.02.37-1.31,2.1-3.22,3.31-5.64,3.73-.18.03-.36.06-.54.07-.29.02-.58.03-.77.04Z"/>
  <path class="cls-1" d="M49.31,72.18c0-1.09,0-2.17,0-3.26,0-.24-.07-.32-.31-.31-.65.01-1.29,0-1.94,0-.22,0-.3-.05-.3-.28,0-1.35,0-2.71,0-4.06,0-.21.06-.27.27-.27.66.01,1.32,0,1.98.01.25,0,.31-.08.31-.31,0-1.27,0-2.54,0-3.81,0-.27.06-.35.34-.35,1.38.02,2.76.01,4.14,0,.25,0,.33.06.33.32-.01,1.23.02,2.47-.02,3.7,0,.39.13.46.47.45.83-.02,1.66,0,2.49-.01.24,0,.34.04.33.31-.01,1.33-.01,2.66,0,3.99,0,.28-.1.32-.34.31-.88-.01-1.76,0-2.64,0-.23,0-.31.05-.31.3.01,1.79,0,3.59,0,5.38,0,.67.33,1.06.98,1.22.65.17,1.3.15,1.96.09.25-.02.34.02.34.29-.01,1.24,0,2.49,0,3.73,0,.17,0,.33-.22.34-1.39.08-2.78.18-4.15-.12-2.14-.46-3.3-1.71-3.59-3.88-.17-1.26-.1-2.53-.12-3.8Z"/>
  <path class="cls-1" d="M128.25,72.21c0-1.23-.02-2.22,0-3.21,0-.33-.1-.4-.41-.39-.62.02-1.24,0-1.87,0-.22,0-.3-.07-.29-.29,0-1.35,0-2.71,0-4.06,0-.23.09-.26.28-.26.65,0,1.29-.01,1.94.01.29.01.34-.09.34-.35-.01-1.26,0-2.51-.01-3.77,0-.27.06-.36.34-.35,1.38.01,2.76.01,4.14,0,.27,0,.32.09.32.34-.01,1.27,0,2.54-.01,3.81,0,.26.08.33.33.33.88-.01,1.76,0,2.64-.01.26,0,.33.08.32.33-.01,1.32-.01,2.64,0,3.95,0,.25-.07.33-.33.33-.88-.01-1.76,0-2.64,0-.25,0-.33.05-.33.31.01,1.73,0,3.46,0,5.2,0,.92.37,1.33,1.29,1.46.57.08,1.14.09,1.72.03.21-.02.27.04.27.25,0,1.28,0,2.56,0,3.84,0,.15-.01.26-.2.27-1.56.11-3.12.2-4.65-.23-1.83-.51-2.77-1.79-3.07-3.61-.23-1.38-.1-2.78-.14-3.92Z"/>
  <path class="cls-1" d="M64.17,66.48c.19-.32.34-.62.54-.87.99-1.29,2.36-1.83,3.94-1.91.18,0,.23.06.23.23,0,1.65,0,3.29,0,4.94,0,.2-.05.24-.25.22-.62-.06-1.24-.04-1.85.13-1.71.46-2.67,1.7-2.67,3.47,0,2.29,0,4.59,0,6.88,0,.3-.07.39-.38.38-1.37-.02-2.73-.01-4.1,0-.23,0-.31-.05-.31-.3,0-5.11,0-10.22,0-15.33,0-.24.07-.31.31-.3,1.4,0,2.81.01,4.21,0,.24,0,.28.08.27.29-.01.56-.01,1.12,0,1.68,0,.15-.03.31.07.5Z"/>
  <path class="cls-1" d="M70.8,71.81c0-2.59,0-5.17,0-7.76,0-.28.06-.37.36-.37,1.35.02,2.71.01,4.06,0,.26,0,.38.03.38.35-.01,5.2-.01,10.4,0,15.6,0,.24-.05.31-.3.31-1.39-.01-2.78-.01-4.17,0-.25,0-.32-.07-.32-.33,0-2.6,0-5.2,0-7.8h0Z"/>
  <path class="cls-3" d="M73.2,62.41c-1.6,0-2.88-1.27-2.88-2.87,0-1.57,1.28-2.85,2.86-2.85,1.56,0,2.88,1.28,2.88,2.8,0,1.64-1.26,2.92-2.87,2.93Z"/>
  <path class="cls-1" d="M135.63,58.82c0-1.23.93-2.15,2.16-2.14,1.18,0,2.11.95,2.11,2.12,0,1.22-.94,2.15-2.17,2.14-1.18,0-2.1-.94-2.1-2.13ZM135.93,58.8c0,1.04.79,1.85,1.8,1.86,1.03,0,1.86-.82,1.85-1.85,0-1.01-.83-1.82-1.85-1.82-1,0-1.81.81-1.81,1.81Z"/>
  <path class="cls-2" d="M105.54,71.99c0,2.17-1.53,3.74-3.64,3.74-2.15,0-3.68-1.57-3.67-3.79,0-2.15,1.54-3.71,3.67-3.72,2.11-.01,3.65,1.57,3.64,3.78Z"/>
  <path class="cls-2" d="M135.93,58.8c0-1,.81-1.81,1.81-1.81,1.02,0,1.84.81,1.85,1.82,0,1.03-.82,1.86-1.85,1.85-1.01,0-1.8-.82-1.8-1.86ZM138.25,58.88c.43-.14.52-.41.45-.74-.07-.32-.31-.46-.61-.48-.33-.02-.66,0-.99-.02-.15,0-.22.03-.22.2,0,.65,0,1.29,0,1.94,0,.16.05.21.21.21.15,0,.23-.04.22-.2,0-.18,0-.37,0-.55,0-.09,0-.15.12-.19.47-.12.83.13.86.6,0,.07,0,.15.02.22.03.13.14.1.24.11.11,0,.15-.04.14-.15-.02-.35,0-.72-.45-.95Z"/>
  <path class="cls-1" d="M138.25,58.88c.46.23.43.59.45.95,0,.11-.03.16-.14.15-.09,0-.21.03-.24-.11-.02-.07-.01-.15-.02-.22-.03-.48-.39-.73-.86-.6-.12.03-.12.1-.12.19,0,.18,0,.37,0,.55,0,.17-.08.2-.22.2-.16,0-.21-.06-.21-.21,0-.65,0-1.29,0-1.94,0-.17.08-.2.22-.2.33,0,.66,0,.99.02.3.02.54.16.61.48.07.34-.02.61-.45.74ZM137.32,58.32c-.01.24-.07.47.32.44.47-.03.67-.13.66-.44,0-.29-.17-.37-.64-.41-.36-.03-.37.16-.33.41Z"/>
  <path class="cls-2" d="M137.32,58.32c-.03-.24-.03-.44.33-.41.47.04.64.12.64.41,0,.3-.19.4-.66.44-.38.03-.33-.2-.32-.44Z"/>
</svg>