<?xml version="1.0" encoding="UTF-8"?>
<svg id="Capa_2" data-name="Capa 2" xmlns="http://www.w3.org/2000/svg" viewBox="0 0 150 150">
  <defs>
    <style>
      .cls-1 {
        fill: #63cd51;
      }

      .cls-2 {
        fill: #f7f7f7;
      }
    </style>
  </defs>
  <g id="Capa_1-2" data-name="Capa 1">
    <g>
      <rect x="0" y="0" width="150" height="150" rx="9.49" ry="9.49"/>
      <g id="Capa_1-2" data-name="Capa 1-2">
        <g id="vQ60fs">
          <g>
            <path class="cls-2" d="M14.36,65.55c2.23-.26,2.6-.15,3.58,1,1-.71,2.06-1.24,3.35-1.05,1.61.24,2.7,1.33,2.72,2.95.04,3.44.06,6.88,0,10.32-.04,2.29-2.15,3.6-4.39,2.83-.5-.17-.97-.43-1.59-.71v3.82h-3.66v-19.15h0ZM18,73.61c0,.97-.02,1.93,0,2.9,0,.46-.21,1.05.56,1.19.69.12,1.47-.03,1.61-.66.51-2.26.5-4.57,0-6.83-.13-.6-.88-.85-1.58-.69-.68.16-.61.68-.61,1.19,0,.97,0,1.93,0,2.9h0Z"/>
            <path class="cls-1" d="M96.12,73.69h-3.23c-.03-2.17-.38-4.41,1.42-6.21,1.39-1.39,3.03-1.74,4.85-1.15,1.81.59,2.61,2.01,2.82,3.8.2,1.67.07,3.35.04,5.03,0,.19-.11.4.17.66,1.09-2.08,2.05-4.17,2.68-6.4.29-1.04-.08-1.88-.92-2.55-.42-.33-.98-.48-1.27-.97.92-.81,3.39-.85,4.56-.09,1.44.93,1.97,2.4,1.4,4.18-.95,2.95-2.23,5.78-3.49,8.61-.93,2.09-2.53,3.12-4.81,3.11-.54,0-1.08,0-1.72,0,0-1.25-.01-2.41,0-3.57.03-1.8.08-3.61.12-5.41.02-.81-.08-1.58-.65-2.24-.77-.88-1.52-.76-2.02.32-.21.45-.19.9-.16,1.36s.12.91.2,1.54h0Z"/>
            <path class="cls-2" d="M70.84,71.11c0-.94-.04-1.77,0-2.6.1-1.67,1.23-2.82,2.9-2.9,1.21-.06,2.44-.06,3.65,0,1.52.07,2.76,1.16,3.12,2.66.11.44.17.91.17,1.37.01,3.99,0,7.97,0,12.06-1.02.05-2.12.5-2.85-.79-1.39,1.29-3.07.95-4.67.76-1.27-.15-2.22-1.46-2.28-2.8-.04-.84-.02-1.68,0-2.52.05-2.76,1.92-4.64,4.67-4.69.34,0,.67,0,1.05,0,.28-.6.09-1.23.15-1.84.07-.68-.05-1.32-.86-1.42-.82-.1-1.03.49-1.15,1.18-.2,1.1-.77,1.55-1.89,1.58-.46.01-.92,0-1.39,0-.17,0-.33-.02-.62-.03h0ZM75.03,75.28c0,.75-.07,1.51.02,2.25.07.57.48,1,1.13.95.64-.05.77-.55.82-1.08.12-1.27-.49-1.93-1.97-2.12Z"/>
            <path class="cls-2" d="M91.84,81.68h-3.54v-9.32c0-.42.03-.85-.02-1.26-.11-.89-.84-1.55-1.6-1.44-.9.13-1.16.69-1.15,1.6.05,3.48.02,6.96.02,10.48h-3.65v-15.95c2.15-.38,3.06-.14,3.59,1.19.76-.62,1.56-1.1,2.52-1.3,1.84-.37,3.77.88,3.8,2.71.09,4.4.03,8.8.03,13.3h0Z"/>
            <path class="cls-2" d="M34.75,75.32c0,1.25.06,2.37-.01,3.5-.12,1.73-1.29,2.82-3.03,2.89-.96.04-1.93.02-2.89.01-2.26-.02-3.79-1.33-3.88-3.57-.11-2.68-.15-5.37-.02-8.05.13-2.73,2.33-4.63,5.01-4.57,2.7.06,4.66,2.02,4.78,4.8.03.84-.03,1.68.02,2.51.05.96-.33,1.39-1.32,1.36-1.47-.04-2.93,0-4.48,0-.17,1.29-.07,2.57-.06,3.85,0,.52.36.85.88.9.62.06,1.01-.41,1.05-.88.07-.9.1-1.77.93-2.34.9-.62,1.91-.47,3.05-.4h0ZM30.61,71.6v-1.75c0-.13,0-.26-.03-.37-.18-.6-.49-1.14-1.18-1.08-.67.06-.79.63-.81,1.21-.05,1.25.57,1.89,2.02,1.99h0Z"/>
            <path class="cls-2" d="M49.25,65.61h3.56v16.07c-1.34-.01-2.78.45-3.55-1.32-.75.61-1.51,1.07-2.41,1.28-1.97.45-3.86-.87-3.88-2.84-.04-4.28,0-8.56,0-12.84,0-.07.06-.15.12-.29h3.26c.3.27.14.67.15,1.02.01,2.9,0,5.79,0,8.68,0,.29-.02.59,0,.88.09.81.75,1.43,1.49,1.41.81-.02,1.25-.54,1.26-1.51,0-3.48,0-6.96,0-10.57h0Z"/>
            <path class="cls-1" d="M113.54,74.2v3.65c0,.58.26.99.85,1.06.69.08.98-.39,1.11-.96.57-2.54,1.07-2.9,3.94-2.6.1,1.47.25,2.98-.2,4.42-.41,1.31-1.5,1.86-2.81,1.93-1.01.05-2.01.02-3.02.01-2.1-.03-3.53-1.2-3.72-3.28-.25-2.8-.26-5.63-.07-8.42.19-2.87,2.44-4.63,5.34-4.47,2.51.14,4.38,2.2,4.44,4.89.02.76.01,1.51,0,2.27-.01,1.33-.17,1.49-1.55,1.5-1.38.01-2.76,0-4.32,0h0ZM115.29,71.6c0-.76.06-1.43-.02-2.09-.08-.61-.42-1.14-1.13-1.09-.69.05-.81.62-.84,1.19-.06,1.19.53,1.81,1.99,1.99h0Z"/>
            <path class="cls-1" d="M124.13,74.2c0,1.3,0,2.42,0,3.55,0,.62.21,1.12.88,1.15.71.03,1.01-.46,1.1-1.12.3-2.1,1.25-2.8,3.32-2.55.47.06.7.23.67.7-.06,1.13.12,2.27-.13,3.39-.25,1.11-.86,1.95-1.99,2.2-1.73.38-3.49.32-5.23.04-1.63-.26-2.31-1.53-2.41-2.92-.21-2.97-.26-5.95-.05-8.92.18-2.53,2.42-4.28,5.07-4.19,2.5.09,4.53,2.08,4.63,4.57.04.96,0,1.93.02,2.89.02.85-.37,1.22-1.21,1.21-1.5-.02-3,0-4.66,0h0ZM125.88,71.61c0-.71.03-1.33,0-1.95-.05-.69-.39-1.28-1.12-1.23-.81.05-.88.77-.86,1.41.03,1.03.61,1.57,1.99,1.77Z"/>
            <path class="cls-2" d="M53.63,65.72c.54-.2,1.09-.09,1.63-.09,1.51-.01,2.09.45,2.26,1.93.31,2.67.57,5.34.83,8.01.08.87.17,1.72.67,2.52.62-.41.69-1.07.75-1.66.3-2.63.6-5.25.83-7.88.22-2.57.55-2.93,3.14-2.92h.82c.22,1.09-.14,2.1-.23,3.11-.25,2.84-.62,5.67-.95,8.5-.32,2.76-2.03,4.45-4.49,4.55-1.13.05-1.94-.39-2.59-1.25-.8-1.06-1.21-2.28-1.37-3.59-.45-3.62-.9-7.24-1.35-10.86-.01-.11.03-.23.05-.36h0Z"/>
            <path class="cls-1" d="M137.15,62.55v2.67c-.43.42-1.28.25-1.48,1.17,1.73.29,1.58,1.6,1.48,2.91-.37.46-.97-.06-1.51.35v11.97c-1.39.17-2.67.07-4.04.07v-11.83c-.32-.59-.82-.27-1.15-.6.06-1.01-.53-2.23.93-2.9.18-.08.17-.61.23-.94.36-1.97,1.47-2.9,3.44-2.88.67,0,1.33,0,2.11,0h0Z"/>
            <path class="cls-2" d="M35.7,65.56c1.34.22,2.86-.58,3.84,1.04.73-.47,1.45-.97,2.41-1v3.89c-1.84.42-2.29.98-2.29,2.86,0,3.06,0,6.12,0,9.28h-3.96v-16.07h0Z"/>
            <path class="cls-2" d="M65.71,65.63c.81,0,1.48-.02,2.14,0,1.22.05,1.85.66,1.85,1.89.02,4.69,0,9.39,0,14.17h-4v-16.07h0Z"/>
            <path class="cls-2" d="M65.71,61.6h3.92v3.03c-1.26.22-2.56.07-3.92.05v-3.08h0Z"/>
            <path d="M18,73.61c0-.97,0-1.93,0-2.9,0-.51-.07-1.03.61-1.19.71-.16,1.45.09,1.58.69.49,2.26.5,4.57,0,6.83-.14.63-.92.78-1.61.66-.77-.14-.55-.73-.56-1.19-.02-.97,0-1.93,0-2.9h0Z"/>
            <path d="M75.03,75.28c1.48.19,2.09.86,1.97,2.12-.05.53-.18,1.03-.82,1.08-.65.05-1.06-.38-1.13-.95-.1-.74-.02-1.5-.02-2.25h0Z"/>
            <path d="M30.61,71.6c-1.45-.1-2.07-.74-2.02-1.99.02-.59.15-1.15.81-1.21.69-.06,1.01.48,1.18,1.08.03.12.03.25.03.37,0,.58,0,1.16,0,1.75h0Z"/>
            <path d="M115.29,71.6c-1.46-.17-2.05-.8-1.99-1.99.03-.58.15-1.14.84-1.19.71-.05,1.06.48,1.13,1.09.08.65.02,1.32.02,2.09h0Z"/>
            <path d="M125.88,71.61c-1.38-.21-1.96-.74-1.99-1.77-.02-.65.05-1.37.86-1.41.74-.04,1.07.55,1.12,1.23.04.62,0,1.24,0,1.95Z"/>
          </g>
        </g>
      </g>
    </g>
  </g>
</svg>